<?xml version="1.0" encoding="utf-8" standalone="no"?>
<!DOCTYPE svg PUBLIC "-//W3C//DTD SVG 1.1//EN"
  "http://www.w3.org/Graphics/SVG/1.1/DTD/svg11.dtd">
<svg xmlns:xlink="http://www.w3.org/1999/xlink" width="648pt" height="432pt" viewBox="0 0 648 432" xmlns="http://www.w3.org/2000/svg" version="1.1">
 <metadata>
  <rdf:RDF xmlns:dc="http://purl.org/dc/elements/1.1/" xmlns:cc="http://creativecommons.org/ns#" xmlns:rdf="http://www.w3.org/1999/02/22-rdf-syntax-ns#">
   <cc:Work>
    <dc:type rdf:resource="http://purl.org/dc/dcmitype/StillImage"/>
    <dc:date>2026-08-17T18:33:14.896674</dc:date>
    <dc:format>image/svg+xml</dc:format>
    <dc:creator>
     <cc:Agent>
      <dc:title>Matplotlib v3.11.0, https://matplotlib.org/</dc:title>
     </cc:Agent>
    </dc:creator>
   </cc:Work>
  </rdf:RDF>
 </metadata>
 <defs>
  <style type="text/css">*{stroke-linejoin: round; stroke-linecap: butt}</style>
 </defs>
 <g id="figure_1">
  <g id="patch_1">
   <path d="M 0 432 
L 648 432 
L 648 0 
L 0 0 
z
" style="fill: #ffffff"/>
  </g>
  <g id="axes_1">
   <g id="patch_2">
    <path d="M 63.082344 389.877656 
L 637.2 389.877656 
L 637.2 26.16 
L 63.082344 26.16 
z
" style="fill: #ffffff"/>
   </g>
   <g id="matplotlib.axis_1">
    <g id="xtick_1">
     <g id="line2d_1">
      <path d="M 92.473094 389.877656 
L 92.473094 26.16 
" clip-path="url(#pab3a905558)" style="fill: none; stroke-dasharray: 0.8,1.32; stroke-dashoffset: 0; stroke: #b0b0b0; stroke-opacity: 0.6; stroke-width: 0.8"/>
     </g>
     <g id="line2d_2">
      <defs>
       <path id="m3a97d82332" d="M 0 0 
L 0 3.5 
" style="stroke: #000000; stroke-width: 0.8"/>
      </defs>
      <g>
       <use xlink:href="#m3a97d82332" x="92.473094" y="389.877656" style="stroke: #000000; stroke-width: 0.8"/>
      </g>
     </g>
     <g id="text_1">
      <!-- −5 -->
      <g transform="translate(85.102 404.475312) scale(0.1 -0.1)">
       <defs>
        <path id="DejaVuSans-c9c" d="M 678 2272 
L 4684 2272 
L 4684 1741 
L 678 1741 
L 678 2272 
z
" transform="scale(0.015625)"/>
        <path id="DejaVuSans-18" d="M 691 4666 
L 3169 4666 
L 3169 4134 
L 1269 4134 
L 1269 2991 
Q 1406 3038 1543 3061 
Q 1681 3084 1819 3084 
Q 2600 3084 3056 2656 
Q 3513 2228 3513 1497 
Q 3513 744 3044 326 
Q 2575 -91 1722 -91 
Q 1428 -91 1123 -41 
Q 819 9 494 109 
L 494 744 
Q 775 591 1075 516 
Q 1375 441 1709 441 
Q 2250 441 2565 725 
Q 2881 1009 2881 1497 
Q 2881 1984 2565 2268 
Q 2250 2553 1709 2553 
Q 1456 2553 1204 2497 
Q 953 2441 691 2322 
L 691 4666 
z
" transform="scale(0.015625)"/>
       </defs>
       <use xlink:href="#DejaVuSans-c9c"/>
       <use xlink:href="#DejaVuSans-18" transform="translate(83.796875 0)"/>
      </g>
     </g>
    </g>
    <g id="xtick_2">
     <g id="line2d_3">
      <path d="M 195.238595 389.877656 
L 195.238595 26.16 
" clip-path="url(#pab3a905558)" style="fill: none; stroke-dasharray: 0.8,1.32; stroke-dashoffset: 0; stroke: #b0b0b0; stroke-opacity: 0.6; stroke-width: 0.8"/>
     </g>
     <g id="line2d_4">
      <g>
       <use xlink:href="#m3a97d82332" x="195.238595" y="389.877656" style="stroke: #000000; stroke-width: 0.8"/>
      </g>
     </g>
     <g id="text_2">
      <!-- 0 -->
      <g transform="translate(192.057345 404.475312) scale(0.1 -0.1)">
       <defs>
        <path id="DejaVuSans-13" d="M 2034 4250 
Q 1547 4250 1301 3770 
Q 1056 3291 1056 2328 
Q 1056 1369 1301 889 
Q 1547 409 2034 409 
Q 2525 409 2770 889 
Q 3016 1369 3016 2328 
Q 3016 3291 2770 3770 
Q 2525 4250 2034 4250 
z
M 2034 4750 
Q 2819 4750 3233 4129 
Q 3647 3509 3647 2328 
Q 3647 1150 3233 529 
Q 2819 -91 2034 -91 
Q 1250 -91 836 529 
Q 422 1150 422 2328 
Q 422 3509 836 4129 
Q 1250 4750 2034 4750 
z
" transform="scale(0.015625)"/>
       </defs>
       <use xlink:href="#DejaVuSans-13"/>
      </g>
     </g>
    </g>
    <g id="xtick_3">
     <g id="line2d_5">
      <path d="M 298.004096 389.877656 
L 298.004096 26.16 
" clip-path="url(#pab3a905558)" style="fill: none; stroke-dasharray: 0.8,1.32; stroke-dashoffset: 0; stroke: #b0b0b0; stroke-opacity: 0.6; stroke-width: 0.8"/>
     </g>
     <g id="line2d_6">
      <g>
       <use xlink:href="#m3a97d82332" x="298.004096" y="389.877656" style="stroke: #000000; stroke-width: 0.8"/>
      </g>
     </g>
     <g id="text_3">
      <!-- 5 -->
      <g transform="translate(294.822846 404.475312) scale(0.1 -0.1)">
       <use xlink:href="#DejaVuSans-18"/>
      </g>
     </g>
    </g>
    <g id="xtick_4">
     <g id="line2d_7">
      <path d="M 400.769597 389.877656 
L 400.769597 26.16 
" clip-path="url(#pab3a905558)" style="fill: none; stroke-dasharray: 0.8,1.32; stroke-dashoffset: 0; stroke: #b0b0b0; stroke-opacity: 0.6; stroke-width: 0.8"/>
     </g>
     <g id="line2d_8">
      <g>
       <use xlink:href="#m3a97d82332" x="400.769597" y="389.877656" style="stroke: #000000; stroke-width: 0.8"/>
      </g>
     </g>
     <g id="text_4">
      <!-- 10 -->
      <g transform="translate(394.407097 404.475312) scale(0.1 -0.1)">
       <defs>
        <path id="DejaVuSans-14" d="M 794 531 
L 1825 531 
L 1825 4091 
L 703 3866 
L 703 4441 
L 1819 4666 
L 2450 4666 
L 2450 531 
L 3481 531 
L 3481 0 
L 794 0 
L 794 531 
z
" transform="scale(0.015625)"/>
       </defs>
       <use xlink:href="#DejaVuSans-14"/>
       <use xlink:href="#DejaVuSans-13" transform="translate(63.625 0)"/>
      </g>
     </g>
    </g>
    <g id="xtick_5">
     <g id="line2d_9">
      <path d="M 503.535099 389.877656 
L 503.535099 26.16 
" clip-path="url(#pab3a905558)" style="fill: none; stroke-dasharray: 0.8,1.32; stroke-dashoffset: 0; stroke: #b0b0b0; stroke-opacity: 0.6; stroke-width: 0.8"/>
     </g>
     <g id="line2d_10">
      <g>
       <use xlink:href="#m3a97d82332" x="503.535099" y="389.877656" style="stroke: #000000; stroke-width: 0.8"/>
      </g>
     </g>
     <g id="text_5">
      <!-- 15 -->
      <g transform="translate(497.172599 404.475312) scale(0.1 -0.1)">
       <use xlink:href="#DejaVuSans-14"/>
       <use xlink:href="#DejaVuSans-18" transform="translate(63.625 0)"/>
      </g>
     </g>
    </g>
    <g id="xtick_6">
     <g id="line2d_11">
      <path d="M 606.3006 389.877656 
L 606.3006 26.16 
" clip-path="url(#pab3a905558)" style="fill: none; stroke-dasharray: 0.8,1.32; stroke-dashoffset: 0; stroke: #b0b0b0; stroke-opacity: 0.6; stroke-width: 0.8"/>
     </g>
     <g id="line2d_12">
      <g>
       <use xlink:href="#m3a97d82332" x="606.3006" y="389.877656" style="stroke: #000000; stroke-width: 0.8"/>
      </g>
     </g>
     <g id="text_6">
      <!-- 20 -->
      <g transform="translate(599.9381 404.475312) scale(0.1 -0.1)">
       <defs>
        <path id="DejaVuSans-15" d="M 1228 531 
L 3431 531 
L 3431 0 
L 469 0 
L 469 531 
Q 828 903 1448 1529 
Q 2069 2156 2228 2338 
Q 2531 2678 2651 2914 
Q 2772 3150 2772 3378 
Q 2772 3750 2511 3984 
Q 2250 4219 1831 4219 
Q 1534 4219 1204 4116 
Q 875 4013 500 3803 
L 500 4441 
Q 881 4594 1212 4672 
Q 1544 4750 1819 4750 
Q 2544 4750 2975 4387 
Q 3406 4025 3406 3419 
Q 3406 3131 3298 2873 
Q 3191 2616 2906 2266 
Q 2828 2175 2409 1742 
Q 1991 1309 1228 531 
z
" transform="scale(0.015625)"/>
       </defs>
       <use xlink:href="#DejaVuSans-15"/>
       <use xlink:href="#DejaVuSans-13" transform="translate(63.625 0)"/>
      </g>
     </g>
    </g>
    <g id="text_7">
     <!-- $\alpha$ (°) -->
     <g transform="translate(338.841172 418.477656) scale(0.1 -0.1)">
      <defs>
       <path id="DejaVuSans-Oblique-345" d="M 2619 1628 
L 2622 2350 
Q 2625 3088 2069 3091 
Q 1653 3094 1394 2747 
Q 1069 2319 959 1747 
Q 825 1059 994 731 
Q 1169 397 1547 397 
Q 1966 397 2319 1063 
L 2619 1628 
z
M 2166 3578 
Q 3141 3594 3128 2584 
Q 3128 2584 3616 3500 
L 4128 3500 
L 3119 1603 
L 3109 919 
Q 3109 766 3194 638 
Q 3291 488 3391 488 
L 3669 488 
L 3575 0 
L 3228 0 
Q 2934 0 2722 263 
Q 2622 394 2619 669 
Q 2416 334 2066 50 
Q 1900 -81 1453 -78 
Q 722 -72 456 397 
Q 184 884 353 1747 
Q 534 2675 1009 3097 
Q 1544 3569 2166 3578 
z
" transform="scale(0.015625)"/>
       <path id="DejaVuSans-3" transform="scale(0.015625)"/>
       <path id="DejaVuSans-b" d="M 1984 4856 
Q 1566 4138 1362 3434 
Q 1159 2731 1159 2009 
Q 1159 1288 1364 580 
Q 1569 -128 1984 -844 
L 1484 -844 
Q 1016 -109 783 600 
Q 550 1309 550 2009 
Q 550 2706 781 3412 
Q 1013 4119 1484 4856 
L 1984 4856 
z
" transform="scale(0.015625)"/>
       <path id="DejaVuSans-72" d="M 1600 4347 
Q 1350 4347 1178 4173 
Q 1006 4000 1006 3750 
Q 1006 3503 1178 3333 
Q 1350 3163 1600 3163 
Q 1850 3163 2022 3333 
Q 2194 3503 2194 3750 
Q 2194 3997 2020 4172 
Q 1847 4347 1600 4347 
z
M 1600 4750 
Q 1800 4750 1984 4673 
Q 2169 4597 2303 4453 
Q 2447 4313 2519 4134 
Q 2591 3956 2591 3750 
Q 2591 3338 2302 3052 
Q 2013 2766 1594 2766 
Q 1172 2766 890 3047 
Q 609 3328 609 3750 
Q 609 4169 896 4459 
Q 1184 4750 1600 4750 
z
" transform="scale(0.015625)"/>
       <path id="DejaVuSans-c" d="M 513 4856 
L 1013 4856 
Q 1481 4119 1714 3412 
Q 1947 2706 1947 2009 
Q 1947 1309 1714 600 
Q 1481 -109 1013 -844 
L 513 -844 
Q 928 -128 1133 580 
Q 1338 1288 1338 2009 
Q 1338 2731 1133 3434 
Q 928 4138 513 4856 
z
" transform="scale(0.015625)"/>
      </defs>
      <use xlink:href="#DejaVuSans-Oblique-345" transform="translate(0 0.125)"/>
      <use xlink:href="#DejaVuSans-3" transform="translate(65.917969 0.125)"/>
      <use xlink:href="#DejaVuSans-b" transform="translate(97.705078 0.125)"/>
      <use xlink:href="#DejaVuSans-72" transform="translate(136.71875 0.125)"/>
      <use xlink:href="#DejaVuSans-c" transform="translate(186.71875 0.125)"/>
     </g>
    </g>
   </g>
   <g id="matplotlib.axis_2">
    <g id="ytick_1">
     <g id="line2d_13">
      <path d="M 63.082344 361.962593 
L 637.2 361.962593 
" clip-path="url(#pab3a905558)" style="fill: none; stroke-dasharray: 0.8,1.32; stroke-dashoffset: 0; stroke: #b0b0b0; stroke-opacity: 0.6; stroke-width: 0.8"/>
     </g>
     <g id="line2d_14">
      <defs>
       <path id="mbed8c399d0" d="M 0 0 
L -3.5 0 
" style="stroke: #000000; stroke-width: 0.8"/>
      </defs>
      <g>
       <use xlink:href="#mbed8c399d0" x="63.082344" y="361.962593" style="stroke: #000000; stroke-width: 0.8"/>
      </g>
     </g>
     <g id="text_8">
      <!-- −0.09 -->
      <g transform="translate(25.437031 365.761421) scale(0.1 -0.1)">
       <defs>
        <path id="DejaVuSans-11" d="M 684 794 
L 1344 794 
L 1344 0 
L 684 0 
L 684 794 
z
" transform="scale(0.015625)"/>
        <path id="DejaVuSans-1c" d="M 703 97 
L 703 672 
Q 941 559 1184 500 
Q 1428 441 1663 441 
Q 2288 441 2617 861 
Q 2947 1281 2994 2138 
Q 2813 1869 2534 1725 
Q 2256 1581 1919 1581 
Q 1219 1581 811 2004 
Q 403 2428 403 3163 
Q 403 3881 828 4315 
Q 1253 4750 1959 4750 
Q 2769 4750 3195 4129 
Q 3622 3509 3622 2328 
Q 3622 1225 3098 567 
Q 2575 -91 1691 -91 
Q 1453 -91 1209 -44 
Q 966 3 703 97 
z
M 1959 2075 
Q 2384 2075 2632 2365 
Q 2881 2656 2881 3163 
Q 2881 3666 2632 3958 
Q 2384 4250 1959 4250 
Q 1534 4250 1286 3958 
Q 1038 3666 1038 3163 
Q 1038 2656 1286 2365 
Q 1534 2075 1959 2075 
z
" transform="scale(0.015625)"/>
       </defs>
       <use xlink:href="#DejaVuSans-c9c"/>
       <use xlink:href="#DejaVuSans-13" transform="translate(83.796875 0)"/>
       <use xlink:href="#DejaVuSans-11" transform="translate(147.421875 0)"/>
       <use xlink:href="#DejaVuSans-13" transform="translate(179.203125 0)"/>
       <use xlink:href="#DejaVuSans-1c" transform="translate(242.828125 0)"/>
      </g>
     </g>
    </g>
    <g id="ytick_2">
     <g id="line2d_15">
      <path d="M 63.082344 296.667443 
L 637.2 296.667443 
" clip-path="url(#pab3a905558)" style="fill: none; stroke-dasharray: 0.8,1.32; stroke-dashoffset: 0; stroke: #b0b0b0; stroke-opacity: 0.6; stroke-width: 0.8"/>
     </g>
     <g id="line2d_16">
      <g>
       <use xlink:href="#mbed8c399d0" x="63.082344" y="296.667443" style="stroke: #000000; stroke-width: 0.8"/>
      </g>
     </g>
     <g id="text_9">
      <!-- −0.08 -->
      <g transform="translate(25.437031 300.466271) scale(0.1 -0.1)">
       <defs>
        <path id="DejaVuSans-1b" d="M 2034 2216 
Q 1584 2216 1326 1975 
Q 1069 1734 1069 1313 
Q 1069 891 1326 650 
Q 1584 409 2034 409 
Q 2484 409 2743 651 
Q 3003 894 3003 1313 
Q 3003 1734 2745 1975 
Q 2488 2216 2034 2216 
z
M 1403 2484 
Q 997 2584 770 2862 
Q 544 3141 544 3541 
Q 544 4100 942 4425 
Q 1341 4750 2034 4750 
Q 2731 4750 3128 4425 
Q 3525 4100 3525 3541 
Q 3525 3141 3298 2862 
Q 3072 2584 2669 2484 
Q 3125 2378 3379 2068 
Q 3634 1759 3634 1313 
Q 3634 634 3220 271 
Q 2806 -91 2034 -91 
Q 1263 -91 848 271 
Q 434 634 434 1313 
Q 434 1759 690 2068 
Q 947 2378 1403 2484 
z
M 1172 3481 
Q 1172 3119 1398 2916 
Q 1625 2713 2034 2713 
Q 2441 2713 2670 2916 
Q 2900 3119 2900 3481 
Q 2900 3844 2670 4047 
Q 2441 4250 2034 4250 
Q 1625 4250 1398 4047 
Q 1172 3844 1172 3481 
z
" transform="scale(0.015625)"/>
       </defs>
       <use xlink:href="#DejaVuSans-c9c"/>
       <use xlink:href="#DejaVuSans-13" transform="translate(83.796875 0)"/>
       <use xlink:href="#DejaVuSans-11" transform="translate(147.421875 0)"/>
       <use xlink:href="#DejaVuSans-13" transform="translate(179.203125 0)"/>
       <use xlink:href="#DejaVuSans-1b" transform="translate(242.828125 0)"/>
      </g>
     </g>
    </g>
    <g id="ytick_3">
     <g id="line2d_17">
      <path d="M 63.082344 231.372292 
L 637.2 231.372292 
" clip-path="url(#pab3a905558)" style="fill: none; stroke-dasharray: 0.8,1.32; stroke-dashoffset: 0; stroke: #b0b0b0; stroke-opacity: 0.6; stroke-width: 0.8"/>
     </g>
     <g id="line2d_18">
      <g>
       <use xlink:href="#mbed8c399d0" x="63.082344" y="231.372292" style="stroke: #000000; stroke-width: 0.8"/>
      </g>
     </g>
     <g id="text_10">
      <!-- −0.07 -->
      <g transform="translate(25.437031 235.17112) scale(0.1 -0.1)">
       <defs>
        <path id="DejaVuSans-1a" d="M 525 4666 
L 3525 4666 
L 3525 4397 
L 1831 0 
L 1172 0 
L 2766 4134 
L 525 4134 
L 525 4666 
z
" transform="scale(0.015625)"/>
       </defs>
       <use xlink:href="#DejaVuSans-c9c"/>
       <use xlink:href="#DejaVuSans-13" transform="translate(83.796875 0)"/>
       <use xlink:href="#DejaVuSans-11" transform="translate(147.421875 0)"/>
       <use xlink:href="#DejaVuSans-13" transform="translate(179.203125 0)"/>
       <use xlink:href="#DejaVuSans-1a" transform="translate(242.828125 0)"/>
      </g>
     </g>
    </g>
    <g id="ytick_4">
     <g id="line2d_19">
      <path d="M 63.082344 166.077142 
L 637.2 166.077142 
" clip-path="url(#pab3a905558)" style="fill: none; stroke-dasharray: 0.8,1.32; stroke-dashoffset: 0; stroke: #b0b0b0; stroke-opacity: 0.6; stroke-width: 0.8"/>
     </g>
     <g id="line2d_20">
      <g>
       <use xlink:href="#mbed8c399d0" x="63.082344" y="166.077142" style="stroke: #000000; stroke-width: 0.8"/>
      </g>
     </g>
     <g id="text_11">
      <!-- −0.06 -->
      <g transform="translate(25.437031 169.87597) scale(0.1 -0.1)">
       <defs>
        <path id="DejaVuSans-19" d="M 2113 2584 
Q 1688 2584 1439 2293 
Q 1191 2003 1191 1497 
Q 1191 994 1439 701 
Q 1688 409 2113 409 
Q 2538 409 2786 701 
Q 3034 994 3034 1497 
Q 3034 2003 2786 2293 
Q 2538 2584 2113 2584 
z
M 3366 4563 
L 3366 3988 
Q 3128 4100 2886 4159 
Q 2644 4219 2406 4219 
Q 1781 4219 1451 3797 
Q 1122 3375 1075 2522 
Q 1259 2794 1537 2939 
Q 1816 3084 2150 3084 
Q 2853 3084 3261 2657 
Q 3669 2231 3669 1497 
Q 3669 778 3244 343 
Q 2819 -91 2113 -91 
Q 1303 -91 875 529 
Q 447 1150 447 2328 
Q 447 3434 972 4092 
Q 1497 4750 2381 4750 
Q 2619 4750 2861 4703 
Q 3103 4656 3366 4563 
z
" transform="scale(0.015625)"/>
       </defs>
       <use xlink:href="#DejaVuSans-c9c"/>
       <use xlink:href="#DejaVuSans-13" transform="translate(83.796875 0)"/>
       <use xlink:href="#DejaVuSans-11" transform="translate(147.421875 0)"/>
       <use xlink:href="#DejaVuSans-13" transform="translate(179.203125 0)"/>
       <use xlink:href="#DejaVuSans-19" transform="translate(242.828125 0)"/>
      </g>
     </g>
    </g>
    <g id="ytick_5">
     <g id="line2d_21">
      <path d="M 63.082344 100.781992 
L 637.2 100.781992 
" clip-path="url(#pab3a905558)" style="fill: none; stroke-dasharray: 0.8,1.32; stroke-dashoffset: 0; stroke: #b0b0b0; stroke-opacity: 0.6; stroke-width: 0.8"/>
     </g>
     <g id="line2d_22">
      <g>
       <use xlink:href="#mbed8c399d0" x="63.082344" y="100.781992" style="stroke: #000000; stroke-width: 0.8"/>
      </g>
     </g>
     <g id="text_12">
      <!-- −0.05 -->
      <g transform="translate(25.437031 104.58082) scale(0.1 -0.1)">
       <use xlink:href="#DejaVuSans-c9c"/>
       <use xlink:href="#DejaVuSans-13" transform="translate(83.796875 0)"/>
       <use xlink:href="#DejaVuSans-11" transform="translate(147.421875 0)"/>
       <use xlink:href="#DejaVuSans-13" transform="translate(179.203125 0)"/>
       <use xlink:href="#DejaVuSans-18" transform="translate(242.828125 0)"/>
      </g>
     </g>
    </g>
    <g id="ytick_6">
     <g id="line2d_23">
      <path d="M 63.082344 35.486841 
L 637.2 35.486841 
" clip-path="url(#pab3a905558)" style="fill: none; stroke-dasharray: 0.8,1.32; stroke-dashoffset: 0; stroke: #b0b0b0; stroke-opacity: 0.6; stroke-width: 0.8"/>
     </g>
     <g id="line2d_24">
      <g>
       <use xlink:href="#mbed8c399d0" x="63.082344" y="35.486841" style="stroke: #000000; stroke-width: 0.8"/>
      </g>
     </g>
     <g id="text_13">
      <!-- −0.04 -->
      <g transform="translate(25.437031 39.285669) scale(0.1 -0.1)">
       <defs>
        <path id="DejaVuSans-17" d="M 2419 4116 
L 825 1625 
L 2419 1625 
L 2419 4116 
z
M 2253 4666 
L 3047 4666 
L 3047 1625 
L 3713 1625 
L 3713 1100 
L 3047 1100 
L 3047 0 
L 2419 0 
L 2419 1100 
L 313 1100 
L 313 1709 
L 2253 4666 
z
" transform="scale(0.015625)"/>
       </defs>
       <use xlink:href="#DejaVuSans-c9c"/>
       <use xlink:href="#DejaVuSans-13" transform="translate(83.796875 0)"/>
       <use xlink:href="#DejaVuSans-11" transform="translate(147.421875 0)"/>
       <use xlink:href="#DejaVuSans-13" transform="translate(179.203125 0)"/>
       <use xlink:href="#DejaVuSans-17" transform="translate(242.828125 0)"/>
      </g>
     </g>
    </g>
    <g id="text_14">
     <!-- Coefficient -->
     <g transform="translate(19.034688 234.824297) rotate(-90) scale(0.1 -0.1)">
      <defs>
       <path id="DejaVuSans-26" d="M 4122 4306 
L 4122 3641 
Q 3803 3938 3442 4084 
Q 3081 4231 2675 4231 
Q 1875 4231 1450 3742 
Q 1025 3253 1025 2328 
Q 1025 1406 1450 917 
Q 1875 428 2675 428 
Q 3081 428 3442 575 
Q 3803 722 4122 1019 
L 4122 359 
Q 3791 134 3420 21 
Q 3050 -91 2638 -91 
Q 1578 -91 968 557 
Q 359 1206 359 2328 
Q 359 3453 968 4101 
Q 1578 4750 2638 4750 
Q 3056 4750 3426 4639 
Q 3797 4528 4122 4306 
z
" transform="scale(0.015625)"/>
       <path id="DejaVuSans-52" d="M 1959 3097 
Q 1497 3097 1228 2736 
Q 959 2375 959 1747 
Q 959 1119 1226 758 
Q 1494 397 1959 397 
Q 2419 397 2687 759 
Q 2956 1122 2956 1747 
Q 2956 2369 2687 2733 
Q 2419 3097 1959 3097 
z
M 1959 3584 
Q 2709 3584 3137 3096 
Q 3566 2609 3566 1747 
Q 3566 888 3137 398 
Q 2709 -91 1959 -91 
Q 1206 -91 779 398 
Q 353 888 353 1747 
Q 353 2609 779 3096 
Q 1206 3584 1959 3584 
z
" transform="scale(0.015625)"/>
       <path id="DejaVuSans-48" d="M 3597 1894 
L 3597 1613 
L 953 1613 
Q 991 1019 1311 708 
Q 1631 397 2203 397 
Q 2534 397 2845 478 
Q 3156 559 3463 722 
L 3463 178 
Q 3153 47 2828 -22 
Q 2503 -91 2169 -91 
Q 1331 -91 842 396 
Q 353 884 353 1716 
Q 353 2575 817 3079 
Q 1281 3584 2069 3584 
Q 2775 3584 3186 3129 
Q 3597 2675 3597 1894 
z
M 3022 2063 
Q 3016 2534 2758 2815 
Q 2500 3097 2075 3097 
Q 1594 3097 1305 2825 
Q 1016 2553 972 2059 
L 3022 2063 
z
" transform="scale(0.015625)"/>
       <path id="DejaVuSans-13b1" d="M 2375 4863 
L 2375 4384 
L 1825 4384 
Q 1516 4384 1394 4259 
Q 1275 4134 1275 3809 
L 1275 3500 
L 2853 3500 
L 2853 3744 
Q 2853 4328 3125 4594 
Q 3213 4681 3334 4741 
Q 3578 4863 3988 4863 
L 4531 4863 
L 4531 4384 
L 3981 4384 
Q 3672 4384 3551 4259 
Q 3431 4134 3431 3809 
L 3431 3500 
L 5588 3500 
L 5588 0 
L 5009 0 
L 5009 3053 
L 3431 3053 
L 3431 0 
L 2853 0 
L 2853 3053 
L 1275 3053 
L 1275 0 
L 697 0 
L 697 3053 
L 147 3053 
L 147 3500 
L 697 3500 
L 697 3744 
Q 697 4328 969 4595 
Q 1241 4863 1831 4863 
L 2375 4863 
z
M 5009 4856 
L 5588 4856 
L 5588 4128 
L 5009 4128 
L 5009 4856 
z
" transform="scale(0.015625)"/>
       <path id="DejaVuSans-46" d="M 3122 3366 
L 3122 2828 
Q 2878 2963 2633 3030 
Q 2388 3097 2138 3097 
Q 1578 3097 1268 2742 
Q 959 2388 959 1747 
Q 959 1106 1268 751 
Q 1578 397 2138 397 
Q 2388 397 2633 464 
Q 2878 531 3122 666 
L 3122 134 
Q 2881 22 2623 -34 
Q 2366 -91 2075 -91 
Q 1284 -91 818 406 
Q 353 903 353 1747 
Q 353 2603 823 3093 
Q 1294 3584 2113 3584 
Q 2378 3584 2631 3529 
Q 2884 3475 3122 3366 
z
" transform="scale(0.015625)"/>
       <path id="DejaVuSans-4c" d="M 603 3500 
L 1178 3500 
L 1178 0 
L 603 0 
L 603 3500 
z
M 603 4863 
L 1178 4863 
L 1178 4134 
L 603 4134 
L 603 4863 
z
" transform="scale(0.015625)"/>
       <path id="DejaVuSans-51" d="M 3513 2113 
L 3513 0 
L 2938 0 
L 2938 2094 
Q 2938 2591 2744 2837 
Q 2550 3084 2163 3084 
Q 1697 3084 1428 2787 
Q 1159 2491 1159 1978 
L 1159 0 
L 581 0 
L 581 3500 
L 1159 3500 
L 1159 2956 
Q 1366 3272 1645 3428 
Q 1925 3584 2291 3584 
Q 2894 3584 3203 3211 
Q 3513 2838 3513 2113 
z
" transform="scale(0.015625)"/>
       <path id="DejaVuSans-57" d="M 1172 4494 
L 1172 3500 
L 2356 3500 
L 2356 3053 
L 1172 3053 
L 1172 1153 
Q 1172 725 1289 603 
Q 1406 481 1766 481 
L 2356 481 
L 2356 0 
L 1766 0 
Q 1100 0 847 248 
Q 594 497 594 1153 
L 594 3053 
L 172 3053 
L 172 3500 
L 594 3500 
L 594 4494 
L 1172 4494 
z
" transform="scale(0.015625)"/>
      </defs>
      <use xlink:href="#DejaVuSans-26"/>
      <use xlink:href="#DejaVuSans-52" transform="translate(69.828125 0)"/>
      <use xlink:href="#DejaVuSans-48" transform="translate(131.015625 0)"/>
      <use xlink:href="#DejaVuSans-13b1" transform="translate(192.546875 0)"/>
      <use xlink:href="#DejaVuSans-46" transform="translate(289.234375 0)"/>
      <use xlink:href="#DejaVuSans-4c" transform="translate(344.21875 0)"/>
      <use xlink:href="#DejaVuSans-48" transform="translate(372 0)"/>
      <use xlink:href="#DejaVuSans-51" transform="translate(433.53125 0)"/>
      <use xlink:href="#DejaVuSans-57" transform="translate(496.90625 0)"/>
     </g>
    </g>
   </g>
   <g id="line2d_25">
    <path d="M 92.473094 121.150902 
L 102.749644 121.150902 
L 113.026194 121.150902 
L 123.302744 121.150902 
L 133.579294 121.150902 
L 143.855844 121.150902 
L 154.132394 121.150902 
L 164.408945 121.150902 
L 174.685495 121.150902 
L 184.962045 121.150902 
L 195.238595 121.150902 
L 205.515145 121.150902 
L 215.791695 121.150902 
L 226.068245 121.150902 
L 236.344795 121.150902 
L 246.621346 121.150902 
L 256.897896 121.150902 
L 267.174446 121.150902 
L 277.450996 121.150902 
L 287.727546 121.150902 
L 298.004096 121.150902 
L 308.280646 121.150902 
L 318.557196 121.150902 
L 328.833747 121.150902 
L 339.110297 121.150902 
L 349.386847 121.150902 
L 359.663397 121.150902 
L 369.939947 121.150902 
L 380.216497 121.150902 
L 390.493047 121.150902 
L 400.769597 121.150902 
L 411.046147 121.150902 
L 421.322698 121.150902 
L 431.599248 121.150902 
L 441.875798 121.150902 
L 452.152348 121.150902 
L 462.428898 121.150902 
L 472.705448 121.150902 
L 482.981998 121.150902 
L 493.258548 121.150902 
L 503.535099 121.150902 
L 513.811649 121.150902 
L 524.088199 121.150902 
L 534.364749 121.150902 
L 544.641299 121.150902 
L 554.917849 121.150902 
L 565.194399 121.150902 
L 575.470949 121.150902 
L 585.7475 121.150902 
L 596.02405 121.150902 
L 606.3006 121.150902 
" clip-path="url(#pab3a905558)" style="fill: none; stroke: #000080; stroke-width: 2; stroke-linecap: square"/>
   </g>
   <g id="line2d_26">
    <path d="M 92.473094 117.115669 
L 102.749644 121.72709 
L 113.026194 126.548117 
L 123.302744 131.554363 
L 133.579294 136.72138 
L 143.855844 142.024665 
L 154.132394 147.439674 
L 164.408945 152.941825 
L 174.685495 158.506514 
L 184.962045 164.109117 
L 195.238595 169.725006 
L 205.515145 175.329553 
L 215.791695 180.898144 
L 226.068245 186.406182 
L 236.344795 191.829104 
L 246.621346 197.142384 
L 256.897896 202.321544 
L 267.174446 207.342165 
L 277.450996 212.179894 
L 287.727546 216.810454 
L 298.004096 221.209653 
L 308.280646 225.353392 
L 318.557196 229.217679 
L 328.833747 232.77863 
L 339.110297 236.012484 
L 349.386847 238.89561 
L 359.663397 241.404517 
L 369.939947 243.515862 
L 380.216497 245.206457 
L 390.493047 246.453282 
L 400.769597 247.23349 
L 411.046147 247.524417 
L 421.322698 247.303591 
L 431.599248 246.548741 
L 441.875798 245.237803 
L 452.152348 243.348932 
L 462.428898 240.860507 
L 472.705448 237.751141 
L 482.981998 233.999689 
L 493.258548 229.585257 
L 503.535099 224.487208 
L 513.811649 218.685171 
L 524.088199 212.15905 
L 534.364749 204.889029 
L 544.641299 196.855584 
L 554.917849 188.039485 
L 565.194399 178.421809 
L 575.470949 167.983944 
L 585.7475 156.707597 
L 596.02405 144.574801 
L 606.3006 131.567924 
" clip-path="url(#pab3a905558)" style="fill: none; stroke: #daa520; stroke-width: 2; stroke-linecap: square"/>
   </g>
   <g id="line2d_27">
    <path d="M 92.473094 92.293622 
L 102.749644 96.864283 
L 113.026194 101.434943 
L 123.302744 106.005604 
L 133.579294 110.576264 
L 143.855844 115.146925 
L 154.132394 119.717585 
L 164.408945 124.288246 
L 174.685495 128.858906 
L 184.962045 133.429567 
L 195.238595 138.000227 
L 205.515145 142.570888 
L 215.791695 147.7945 
L 226.068245 152.36516 
L 236.344795 156.935821 
L 246.621346 162.159433 
L 256.897896 166.730094 
L 267.174446 171.953706 
L 277.450996 176.524366 
L 287.727546 181.747978 
L 298.004096 186.318639 
L 308.280646 191.542251 
L 318.557196 196.112911 
L 328.833747 201.336523 
L 339.110297 205.907184 
L 349.386847 211.130796 
L 359.663397 216.354408 
L 369.939947 220.925068 
L 380.216497 226.14868 
L 390.493047 231.372292 
L 400.769597 235.942953 
L 411.046147 241.166565 
L 421.322698 245.737225 
L 431.599248 250.960837 
L 441.875798 256.184449 
L 452.152348 260.75511 
L 462.428898 265.978722 
L 472.705448 270.549383 
L 482.981998 275.772995 
L 493.258548 280.996607 
L 503.535099 285.567267 
L 513.811649 290.790879 
L 524.088199 295.36154 
L 534.364749 299.9322 
L 544.641299 305.155812 
L 554.917849 309.726473 
L 565.194399 314.950085 
L 575.470949 319.520745 
L 585.7475 324.091406 
L 596.02405 328.662066 
L 606.3006 333.232727 
" clip-path="url(#pab3a905558)" style="fill: none; stroke: #7fff00; stroke-width: 2; stroke-linecap: square"/>
   </g>
   <g id="line2d_28">
    <path clip-path="url(#pab3a905558)" style="fill: none; stroke-dasharray: 2.96,1.28; stroke-dashoffset: 0; stroke: #000000; stroke-width: 0.8"/>
   </g>
   <g id="line2d_29">
    <path d="M 195.238595 389.877656 
L 195.238595 26.16 
" clip-path="url(#pab3a905558)" style="fill: none; stroke-dasharray: 2.96,1.28; stroke-dashoffset: 0; stroke: #000000; stroke-width: 0.8"/>
   </g>
   <g id="patch_3">
    <path d="M 63.082344 389.877656 
L 63.082344 26.16 
" style="fill: none; stroke: #000000; stroke-width: 0.8; stroke-linejoin: miter; stroke-linecap: square"/>
   </g>
   <g id="patch_4">
    <path d="M 637.2 389.877656 
L 637.2 26.16 
" style="fill: none; stroke: #000000; stroke-width: 0.8; stroke-linejoin: miter; stroke-linecap: square"/>
   </g>
   <g id="patch_5">
    <path d="M 63.082344 389.877656 
L 637.2 389.877656 
" style="fill: none; stroke: #000000; stroke-width: 0.8; stroke-linejoin: miter; stroke-linecap: square"/>
   </g>
   <g id="patch_6">
    <path d="M 63.082344 26.16 
L 637.2 26.16 
" style="fill: none; stroke: #000000; stroke-width: 0.8; stroke-linejoin: miter; stroke-linecap: square"/>
   </g>
   <g id="text_15">
    <!-- $C_{M,c/4}$  vs. $\alpha$ (NACA 2412, 199 panels) -->
    <g transform="translate(237.821172 20.16) scale(0.12 -0.12)">
     <defs>
      <path id="DejaVuSans-Oblique-26" d="M 4447 4306 
L 4319 3641 
Q 4019 3944 3683 4091 
Q 3347 4238 2956 4238 
Q 2422 4238 2017 3981 
Q 1613 3725 1319 3200 
Q 1131 2863 1032 2486 
Q 934 2109 934 1728 
Q 934 1091 1264 756 
Q 1594 422 2222 422 
Q 2656 422 3056 561 
Q 3456 700 3834 978 
L 3688 231 
Q 3316 72 2936 -9 
Q 2556 -91 2175 -91 
Q 1278 -91 773 396 
Q 269 884 269 1753 
Q 269 2309 461 2846 
Q 653 3384 1013 3828 
Q 1394 4300 1883 4525 
Q 2372 4750 3022 4750 
Q 3422 4750 3780 4639 
Q 4138 4528 4447 4306 
z
" transform="scale(0.015625)"/>
      <path id="DejaVuSans-Oblique-30" d="M 1081 4666 
L 2028 4666 
L 2572 1522 
L 4378 4666 
L 5350 4666 
L 4441 0 
L 3828 0 
L 4622 4091 
L 2791 897 
L 2175 897 
L 1581 4103 
L 788 0 
L 172 0 
L 1081 4666 
z
" transform="scale(0.015625)"/>
      <path id="DejaVuSans-f" d="M 750 794 
L 1409 794 
L 1409 256 
L 897 -744 
L 494 -744 
L 750 256 
L 750 794 
z
" transform="scale(0.015625)"/>
      <path id="DejaVuSans-Oblique-46" d="M 3431 3366 
L 3316 2797 
Q 3109 2947 2876 3022 
Q 2644 3097 2394 3097 
Q 2119 3097 1870 3000 
Q 1622 2903 1453 2725 
Q 1184 2453 1037 2087 
Q 891 1722 891 1331 
Q 891 859 1127 628 
Q 1363 397 1844 397 
Q 2081 397 2348 469 
Q 2616 541 2906 684 
L 2797 116 
Q 2547 13 2283 -39 
Q 2019 -91 1741 -91 
Q 1044 -91 669 257 
Q 294 606 294 1253 
Q 294 1797 489 2255 
Q 684 2713 1069 3078 
Q 1331 3328 1684 3456 
Q 2038 3584 2456 3584 
Q 2700 3584 2940 3529 
Q 3181 3475 3431 3366 
z
" transform="scale(0.015625)"/>
      <path id="DejaVuSans-12" d="M 1625 4666 
L 2156 4666 
L 531 -594 
L 0 -594 
L 1625 4666 
z
" transform="scale(0.015625)"/>
      <path id="DejaVuSans-59" d="M 191 3500 
L 800 3500 
L 1894 563 
L 2988 3500 
L 3597 3500 
L 2284 0 
L 1503 0 
L 191 3500 
z
" transform="scale(0.015625)"/>
      <path id="DejaVuSans-56" d="M 2834 3397 
L 2834 2853 
Q 2591 2978 2328 3040 
Q 2066 3103 1784 3103 
Q 1356 3103 1142 2972 
Q 928 2841 928 2578 
Q 928 2378 1081 2264 
Q 1234 2150 1697 2047 
L 1894 2003 
Q 2506 1872 2764 1633 
Q 3022 1394 3022 966 
Q 3022 478 2636 193 
Q 2250 -91 1575 -91 
Q 1294 -91 989 -36 
Q 684 19 347 128 
L 347 722 
Q 666 556 975 473 
Q 1284 391 1588 391 
Q 1994 391 2212 530 
Q 2431 669 2431 922 
Q 2431 1156 2273 1281 
Q 2116 1406 1581 1522 
L 1381 1569 
Q 847 1681 609 1914 
Q 372 2147 372 2553 
Q 372 3047 722 3315 
Q 1072 3584 1716 3584 
Q 2034 3584 2315 3537 
Q 2597 3491 2834 3397 
z
" transform="scale(0.015625)"/>
      <path id="DejaVuSans-31" d="M 628 4666 
L 1478 4666 
L 3547 763 
L 3547 4666 
L 4159 4666 
L 4159 0 
L 3309 0 
L 1241 3903 
L 1241 0 
L 628 0 
L 628 4666 
z
" transform="scale(0.015625)"/>
      <path id="DejaVuSans-24" d="M 2188 4044 
L 1331 1722 
L 3047 1722 
L 2188 4044 
z
M 1831 4666 
L 2547 4666 
L 4325 0 
L 3669 0 
L 3244 1197 
L 1141 1197 
L 716 0 
L 50 0 
L 1831 4666 
z
" transform="scale(0.015625)"/>
      <path id="DejaVuSans-53" d="M 1159 525 
L 1159 -1331 
L 581 -1331 
L 581 3500 
L 1159 3500 
L 1159 2969 
Q 1341 3281 1617 3432 
Q 1894 3584 2278 3584 
Q 2916 3584 3314 3078 
Q 3713 2572 3713 1747 
Q 3713 922 3314 415 
Q 2916 -91 2278 -91 
Q 1894 -91 1617 61 
Q 1341 213 1159 525 
z
M 3116 1747 
Q 3116 2381 2855 2742 
Q 2594 3103 2138 3103 
Q 1681 3103 1420 2742 
Q 1159 2381 1159 1747 
Q 1159 1113 1420 752 
Q 1681 391 2138 391 
Q 2594 391 2855 752 
Q 3116 1113 3116 1747 
z
" transform="scale(0.015625)"/>
      <path id="DejaVuSans-44" d="M 2194 1759 
Q 1497 1759 1228 1600 
Q 959 1441 959 1056 
Q 959 750 1161 570 
Q 1363 391 1709 391 
Q 2188 391 2477 730 
Q 2766 1069 2766 1631 
L 2766 1759 
L 2194 1759 
z
M 3341 1997 
L 3341 0 
L 2766 0 
L 2766 531 
Q 2569 213 2275 61 
Q 1981 -91 1556 -91 
Q 1019 -91 701 211 
Q 384 513 384 1019 
Q 384 1609 779 1909 
Q 1175 2209 1959 2209 
L 2766 2209 
L 2766 2266 
Q 2766 2663 2505 2880 
Q 2244 3097 1772 3097 
Q 1472 3097 1187 3025 
Q 903 2953 641 2809 
L 641 3341 
Q 956 3463 1253 3523 
Q 1550 3584 1831 3584 
Q 2591 3584 2966 3190 
Q 3341 2797 3341 1997 
z
" transform="scale(0.015625)"/>
      <path id="DejaVuSans-4f" d="M 603 4863 
L 1178 4863 
L 1178 0 
L 603 0 
L 603 4863 
z
" transform="scale(0.015625)"/>
     </defs>
     <use xlink:href="#DejaVuSans-Oblique-26" transform="translate(0 0.015625)"/>
     <use xlink:href="#DejaVuSans-Oblique-30" transform="translate(69.824219 -14.984326) scale(0.7)"/>
     <use xlink:href="#DejaVuSans-f" transform="translate(130.219727 -14.984326) scale(0.7)"/>
     <use xlink:href="#DejaVuSans-Oblique-46" transform="translate(166.108398 -14.984326) scale(0.7)"/>
     <use xlink:href="#DejaVuSans-12" transform="translate(204.594727 -14.984326) scale(0.7)"/>
     <use xlink:href="#DejaVuSans-17" transform="translate(228.178711 -14.984326) scale(0.7)"/>
     <use xlink:href="#DejaVuSans-3" transform="translate(275.449219 0.015625)"/>
     <use xlink:href="#DejaVuSans-3" transform="translate(307.236328 0.015625)"/>
     <use xlink:href="#DejaVuSans-59" transform="translate(339.023438 0.015625)"/>
     <use xlink:href="#DejaVuSans-56" transform="translate(398.203125 0.015625)"/>
     <use xlink:href="#DejaVuSans-11" transform="translate(450.302734 0.015625)"/>
     <use xlink:href="#DejaVuSans-3" transform="translate(482.089844 0.015625)"/>
     <use xlink:href="#DejaVuSans-Oblique-345" transform="translate(513.876953 0.015625)"/>
     <use xlink:href="#DejaVuSans-3" transform="translate(579.794922 0.015625)"/>
     <use xlink:href="#DejaVuSans-b" transform="translate(611.582031 0.015625)"/>
     <use xlink:href="#DejaVuSans-31" transform="translate(650.595703 0.015625)"/>
     <use xlink:href="#DejaVuSans-24" transform="translate(725.400391 0.015625)"/>
     <use xlink:href="#DejaVuSans-26" transform="translate(791.808594 0.015625)"/>
     <use xlink:href="#DejaVuSans-24" transform="translate(861.632812 0.015625)"/>
     <use xlink:href="#DejaVuSans-3" transform="translate(930.041016 0.015625)"/>
     <use xlink:href="#DejaVuSans-15" transform="translate(961.828125 0.015625)"/>
     <use xlink:href="#DejaVuSans-17" transform="translate(1025.451172 0.015625)"/>
     <use xlink:href="#DejaVuSans-14" transform="translate(1089.074219 0.015625)"/>
     <use xlink:href="#DejaVuSans-15" transform="translate(1152.697266 0.015625)"/>
     <use xlink:href="#DejaVuSans-f" transform="translate(1216.320312 0.015625)"/>
     <use xlink:href="#DejaVuSans-3" transform="translate(1248.107422 0.015625)"/>
     <use xlink:href="#DejaVuSans-14" transform="translate(1279.894531 0.015625)"/>
     <use xlink:href="#DejaVuSans-1c" transform="translate(1343.517578 0.015625)"/>
     <use xlink:href="#DejaVuSans-1c" transform="translate(1407.140625 0.015625)"/>
     <use xlink:href="#DejaVuSans-3" transform="translate(1470.763672 0.015625)"/>
     <use xlink:href="#DejaVuSans-53" transform="translate(1502.550781 0.015625)"/>
     <use xlink:href="#DejaVuSans-44" transform="translate(1566.027344 0.015625)"/>
     <use xlink:href="#DejaVuSans-51" transform="translate(1627.306641 0.015625)"/>
     <use xlink:href="#DejaVuSans-48" transform="translate(1690.685547 0.015625)"/>
     <use xlink:href="#DejaVuSans-4f" transform="translate(1752.208984 0.015625)"/>
     <use xlink:href="#DejaVuSans-56" transform="translate(1779.992188 0.015625)"/>
     <use xlink:href="#DejaVuSans-c" transform="translate(1832.091797 0.015625)"/>
    </g>
   </g>
   <g id="legend_1">
    <g id="patch_7">
     <path d="M 70.082344 384.877656 
L 213.782344 384.877656 
Q 215.782344 384.877656 215.782344 382.877656 
L 215.782344 338.870625 
Q 215.782344 336.870625 213.782344 336.870625 
L 70.082344 336.870625 
Q 68.082344 336.870625 68.082344 338.870625 
L 68.082344 382.877656 
Q 68.082344 384.877656 70.082344 384.877656 
z
" style="fill: #ffffff; opacity: 0.8; stroke: #cccccc; stroke-linejoin: miter"/>
    </g>
    <g id="line2d_30">
     <path d="M 72.082344 344.970625 
L 82.082344 344.970625 
L 92.082344 344.970625 
" style="fill: none; stroke: #000080; stroke-width: 2; stroke-linecap: square"/>
    </g>
    <g id="text_16">
     <!-- $C_{M,c/4}$ (Thin Airfoil) -->
     <g transform="translate(100.082344 348.470625) scale(0.1 -0.1)">
      <defs>
       <path id="DejaVuSans-37" d="M -19 4666 
L 3928 4666 
L 3928 4134 
L 2272 4134 
L 2272 0 
L 1638 0 
L 1638 4134 
L -19 4134 
L -19 4666 
z
" transform="scale(0.015625)"/>
       <path id="DejaVuSans-4b" d="M 3513 2113 
L 3513 0 
L 2938 0 
L 2938 2094 
Q 2938 2591 2744 2837 
Q 2550 3084 2163 3084 
Q 1697 3084 1428 2787 
Q 1159 2491 1159 1978 
L 1159 0 
L 581 0 
L 581 4863 
L 1159 4863 
L 1159 2956 
Q 1366 3272 1645 3428 
Q 1925 3584 2291 3584 
Q 2894 3584 3203 3211 
Q 3513 2838 3513 2113 
z
" transform="scale(0.015625)"/>
       <path id="DejaVuSans-55" d="M 2631 2963 
Q 2534 3019 2420 3045 
Q 2306 3072 2169 3072 
Q 1681 3072 1420 2755 
Q 1159 2438 1159 1844 
L 1159 0 
L 581 0 
L 581 3500 
L 1159 3500 
L 1159 2956 
Q 1341 3275 1631 3429 
Q 1922 3584 2338 3584 
Q 2397 3584 2469 3576 
Q 2541 3569 2628 3553 
L 2631 2963 
z
" transform="scale(0.015625)"/>
       <path id="DejaVuSans-49" d="M 2375 4863 
L 2375 4384 
L 1825 4384 
Q 1516 4384 1395 4259 
Q 1275 4134 1275 3809 
L 1275 3500 
L 2222 3500 
L 2222 3053 
L 1275 3053 
L 1275 0 
L 697 0 
L 697 3053 
L 147 3053 
L 147 3500 
L 697 3500 
L 697 3744 
Q 697 4328 969 4595 
Q 1241 4863 1831 4863 
L 2375 4863 
z
" transform="scale(0.015625)"/>
      </defs>
      <use xlink:href="#DejaVuSans-Oblique-26" transform="translate(0 0.015625)"/>
      <use xlink:href="#DejaVuSans-Oblique-30" transform="translate(69.824219 -14.984326) scale(0.7)"/>
      <use xlink:href="#DejaVuSans-f" transform="translate(130.219727 -14.984326) scale(0.7)"/>
      <use xlink:href="#DejaVuSans-Oblique-46" transform="translate(166.108398 -14.984326) scale(0.7)"/>
      <use xlink:href="#DejaVuSans-12" transform="translate(204.594727 -14.984326) scale(0.7)"/>
      <use xlink:href="#DejaVuSans-17" transform="translate(228.178711 -14.984326) scale(0.7)"/>
      <use xlink:href="#DejaVuSans-3" transform="translate(275.449219 0.015625)"/>
      <use xlink:href="#DejaVuSans-b" transform="translate(307.236328 0.015625)"/>
      <use xlink:href="#DejaVuSans-37" transform="translate(346.25 0.015625)"/>
      <use xlink:href="#DejaVuSans-4b" transform="translate(407.333984 0.015625)"/>
      <use xlink:href="#DejaVuSans-4c" transform="translate(470.712891 0.015625)"/>
      <use xlink:href="#DejaVuSans-51" transform="translate(498.496094 0.015625)"/>
      <use xlink:href="#DejaVuSans-3" transform="translate(561.875 0.015625)"/>
      <use xlink:href="#DejaVuSans-24" transform="translate(593.662109 0.015625)"/>
      <use xlink:href="#DejaVuSans-4c" transform="translate(662.070312 0.015625)"/>
      <use xlink:href="#DejaVuSans-55" transform="translate(689.853516 0.015625)"/>
      <use xlink:href="#DejaVuSans-49" transform="translate(730.966797 0.015625)"/>
      <use xlink:href="#DejaVuSans-52" transform="translate(766.171875 0.015625)"/>
      <use xlink:href="#DejaVuSans-4c" transform="translate(827.353516 0.015625)"/>
      <use xlink:href="#DejaVuSans-4f" transform="translate(855.136719 0.015625)"/>
      <use xlink:href="#DejaVuSans-c" transform="translate(882.919922 0.015625)"/>
     </g>
    </g>
    <g id="line2d_31">
     <path d="M 72.082344 359.972969 
L 82.082344 359.972969 
L 92.082344 359.972969 
" style="fill: none; stroke: #daa520; stroke-width: 2; stroke-linecap: square"/>
    </g>
    <g id="text_17">
     <!-- $C_{M,c/4}$ (VPM) -->
     <g transform="translate(100.082344 363.472969) scale(0.1 -0.1)">
      <defs>
       <path id="DejaVuSans-39" d="M 1831 0 
L 50 4666 
L 709 4666 
L 2188 738 
L 3669 4666 
L 4325 4666 
L 2547 0 
L 1831 0 
z
" transform="scale(0.015625)"/>
       <path id="DejaVuSans-33" d="M 1259 4147 
L 1259 2394 
L 2053 2394 
Q 2494 2394 2734 2622 
Q 2975 2850 2975 3272 
Q 2975 3691 2734 3919 
Q 2494 4147 2053 4147 
L 1259 4147 
z
M 628 4666 
L 2053 4666 
Q 2838 4666 3239 4311 
Q 3641 3956 3641 3272 
Q 3641 2581 3239 2228 
Q 2838 1875 2053 1875 
L 1259 1875 
L 1259 0 
L 628 0 
L 628 4666 
z
" transform="scale(0.015625)"/>
       <path id="DejaVuSans-30" d="M 628 4666 
L 1569 4666 
L 2759 1491 
L 3956 4666 
L 4897 4666 
L 4897 0 
L 4281 0 
L 4281 4097 
L 3078 897 
L 2444 897 
L 1241 4097 
L 1241 0 
L 628 0 
L 628 4666 
z
" transform="scale(0.015625)"/>
      </defs>
      <use xlink:href="#DejaVuSans-Oblique-26" transform="translate(0 0.125)"/>
      <use xlink:href="#DejaVuSans-Oblique-30" transform="translate(69.824219 -14.874951) scale(0.7)"/>
      <use xlink:href="#DejaVuSans-f" transform="translate(130.219727 -14.874951) scale(0.7)"/>
      <use xlink:href="#DejaVuSans-Oblique-46" transform="translate(166.108398 -14.874951) scale(0.7)"/>
      <use xlink:href="#DejaVuSans-12" transform="translate(204.594727 -14.874951) scale(0.7)"/>
      <use xlink:href="#DejaVuSans-17" transform="translate(228.178711 -14.874951) scale(0.7)"/>
      <use xlink:href="#DejaVuSans-3" transform="translate(275.449219 0.125)"/>
      <use xlink:href="#DejaVuSans-b" transform="translate(307.236328 0.125)"/>
      <use xlink:href="#DejaVuSans-39" transform="translate(346.25 0.125)"/>
      <use xlink:href="#DejaVuSans-33" transform="translate(414.658203 0.125)"/>
      <use xlink:href="#DejaVuSans-30" transform="translate(474.960938 0.125)"/>
      <use xlink:href="#DejaVuSans-c" transform="translate(561.240234 0.125)"/>
     </g>
    </g>
    <g id="line2d_32">
     <path d="M 72.082344 374.975312 
L 82.082344 374.975312 
L 92.082344 374.975312 
" style="fill: none; stroke: #7fff00; stroke-width: 2; stroke-linecap: square"/>
    </g>
    <g id="text_18">
     <!-- $C_{M,c/4}$ (XFOIL, Inviscid) -->
     <g transform="translate(100.082344 378.475312) scale(0.1 -0.1)">
      <defs>
       <path id="DejaVuSans-3b" d="M 403 4666 
L 1081 4666 
L 2241 2931 
L 3406 4666 
L 4084 4666 
L 2584 2425 
L 4184 0 
L 3506 0 
L 2194 1984 
L 872 0 
L 191 0 
L 1856 2491 
L 403 4666 
z
" transform="scale(0.015625)"/>
       <path id="DejaVuSans-29" d="M 628 4666 
L 3309 4666 
L 3309 4134 
L 1259 4134 
L 1259 2759 
L 3109 2759 
L 3109 2228 
L 1259 2228 
L 1259 0 
L 628 0 
L 628 4666 
z
" transform="scale(0.015625)"/>
       <path id="DejaVuSans-32" d="M 2522 4238 
Q 1834 4238 1429 3725 
Q 1025 3213 1025 2328 
Q 1025 1447 1429 934 
Q 1834 422 2522 422 
Q 3209 422 3611 934 
Q 4013 1447 4013 2328 
Q 4013 3213 3611 3725 
Q 3209 4238 2522 4238 
z
M 2522 4750 
Q 3503 4750 4090 4092 
Q 4678 3434 4678 2328 
Q 4678 1225 4090 567 
Q 3503 -91 2522 -91 
Q 1538 -91 948 565 
Q 359 1222 359 2328 
Q 359 3434 948 4092 
Q 1538 4750 2522 4750 
z
" transform="scale(0.015625)"/>
       <path id="DejaVuSans-2c" d="M 628 4666 
L 1259 4666 
L 1259 0 
L 628 0 
L 628 4666 
z
" transform="scale(0.015625)"/>
       <path id="DejaVuSans-2f" d="M 628 4666 
L 1259 4666 
L 1259 531 
L 3531 531 
L 3531 0 
L 628 0 
L 628 4666 
z
" transform="scale(0.015625)"/>
       <path id="DejaVuSans-47" d="M 2906 2969 
L 2906 4863 
L 3481 4863 
L 3481 0 
L 2906 0 
L 2906 525 
Q 2725 213 2448 61 
Q 2172 -91 1784 -91 
Q 1150 -91 751 415 
Q 353 922 353 1747 
Q 353 2572 751 3078 
Q 1150 3584 1784 3584 
Q 2172 3584 2448 3432 
Q 2725 3281 2906 2969 
z
M 947 1747 
Q 947 1113 1208 752 
Q 1469 391 1925 391 
Q 2381 391 2643 752 
Q 2906 1113 2906 1747 
Q 2906 2381 2643 2742 
Q 2381 3103 1925 3103 
Q 1469 3103 1208 2742 
Q 947 2381 947 1747 
z
" transform="scale(0.015625)"/>
      </defs>
      <use xlink:href="#DejaVuSans-Oblique-26" transform="translate(0 0.015625)"/>
      <use xlink:href="#DejaVuSans-Oblique-30" transform="translate(69.824219 -14.984326) scale(0.7)"/>
      <use xlink:href="#DejaVuSans-f" transform="translate(130.219727 -14.984326) scale(0.7)"/>
      <use xlink:href="#DejaVuSans-Oblique-46" transform="translate(166.108398 -14.984326) scale(0.7)"/>
      <use xlink:href="#DejaVuSans-12" transform="translate(204.594727 -14.984326) scale(0.7)"/>
      <use xlink:href="#DejaVuSans-17" transform="translate(228.178711 -14.984326) scale(0.7)"/>
      <use xlink:href="#DejaVuSans-3" transform="translate(275.449219 0.015625)"/>
      <use xlink:href="#DejaVuSans-b" transform="translate(307.236328 0.015625)"/>
      <use xlink:href="#DejaVuSans-3b" transform="translate(346.25 0.015625)"/>
      <use xlink:href="#DejaVuSans-29" transform="translate(414.755859 0.015625)"/>
      <use xlink:href="#DejaVuSans-32" transform="translate(472.275391 0.015625)"/>
      <use xlink:href="#DejaVuSans-2c" transform="translate(550.986328 0.015625)"/>
      <use xlink:href="#DejaVuSans-2f" transform="translate(580.478516 0.015625)"/>
      <use xlink:href="#DejaVuSans-f" transform="translate(636.191406 0.015625)"/>
      <use xlink:href="#DejaVuSans-3" transform="translate(667.978516 0.015625)"/>
      <use xlink:href="#DejaVuSans-2c" transform="translate(699.765625 0.015625)"/>
      <use xlink:href="#DejaVuSans-51" transform="translate(729.257812 0.015625)"/>
      <use xlink:href="#DejaVuSans-59" transform="translate(792.636719 0.015625)"/>
      <use xlink:href="#DejaVuSans-4c" transform="translate(851.816406 0.015625)"/>
      <use xlink:href="#DejaVuSans-56" transform="translate(879.599609 0.015625)"/>
      <use xlink:href="#DejaVuSans-46" transform="translate(931.699219 0.015625)"/>
      <use xlink:href="#DejaVuSans-4c" transform="translate(986.679688 0.015625)"/>
      <use xlink:href="#DejaVuSans-47" transform="translate(1014.462891 0.015625)"/>
      <use xlink:href="#DejaVuSans-c" transform="translate(1077.939453 0.015625)"/>
     </g>
    </g>
   </g>
  </g>
 </g>
 <defs>
  <clipPath id="pab3a905558">
   <rect x="63.082344" y="26.16" width="574.117656" height="363.717656"/>
  </clipPath>
 </defs>
</svg>
